<?xml version="1.0" encoding="utf-8"?>
<!-- Generator: Adobe Illustrator 24.0.2, SVG Export Plug-In . SVG Version: 6.00 Build 0)  -->
<svg version="1.1" id="Layer_1" xmlns="http://www.w3.org/2000/svg" xmlns:xlink="http://www.w3.org/1999/xlink" x="0px" y="0px"
	 viewBox="0 0 512 512" style="enable-background:new 0 0 512 512;" xml:space="preserve">
<path d="M272,155.1c-16.7,2.1-34,7.4-49.1,14.9c-9.1,4.6-52.2,32-51.5,32.8c0.3,0.2,10.5-5,22.8-11.6c30.2-16.2,43.6-20.2,68.1-20.2
	c14.8,0,24.8,2,35.2,7c19.8,9.5,39.3,33.2,47.4,57.5c14.2,42.6-2.1,80.4-43.8,101.4c-9.4,4.8-28.4,10.9-40.7,13l-10.9,1.9l11.6,0.1
	c31.7,0.2,58.7-10.7,77.5-31.3c22.9-25.1,26.5-57.9,10.6-97.4c-3.2-7.8-1.6-6.3,2.3,2.3c14.3,31.4,18.1,65.6,10.4,95.3
	c-2.5,9.6-9.5,24.2-15,31.3c-2.8,3.5-3.3,4.5-1.5,2.9c4.3-3.9,13-15.8,17-23.1c4.5-8.2,8.9-21.1,10.7-31c1.8-10,1.5-30.3-0.5-41.6
	c-7.2-40.5-27.5-70.8-57.9-86.8c-4.5-2.3-10.6-5-13.5-6c-9.3-3-4.8-2.8,7.8,0.4c30.9,7.8,53.7,20.7,76.2,43.2c13,13,13.1,12,0.6-3.8
	C355.5,168.1,314.5,149.7,272,155.1z"/>
<path d="M193.7,204.3c-20.5,19.7-24.4,47.8-10.7,76.5c2.2,4.6,4,8.6,4,8.8c0,0.2-3.5-2.3-7.7-5.7c-20.6-16.4-40.7-27-50.6-26.8
	l-4.2,0.1l5,1.3c8.2,2.3,22.6,10,29.2,15.7c3.4,2.9,10.4,9,15.5,13.6c30.1,27,66.2,40.8,94.5,36.2c14.7-2.3,29.3-9.6,40.3-19.9
	l4.5-4.3l-4.1,3c-6.2,4.7-17.7,10.1-25.7,12.1c-28.8,7.3-58-0.4-78.8-20.9c-26.3-25.9-30.2-61.5-9.7-88.8c2.6-3.4,4.6-6.2,4.4-6.2
	S196.8,201.4,193.7,204.3z"/>
<path d="M230.5,207.2c-0.2,0.7-1,5.6-1.8,10.8l-1.3,9.5l4.8-4.8c6.7-6.7,17-11.4,28-12.8c5.3-0.7,10-0.8,12.2-0.3l3.6,0.9L251,243
	c-13.7,17.9-25,32.8-25,33.2c0,1.1,62.8,1,63.4,0c0.5-0.8,4.6-18.9,4.6-20.2c0-0.4-2.1,1.3-4.6,3.7c-9.3,8.6-24.1,13.7-38.6,13.1
	l-7.7-0.3l25-32.7c13.7-18,24.9-32.9,24.9-33.3c0-0.3-14-0.5-31-0.5C238,206,230.8,206.3,230.5,207.2z"/>
</svg>
