<svg xmlns="http://www.w3.org/2000/svg" xmlns:xlink="http://www.w3.org/1999/xlink" viewBox="0 0 172 24"><path d="M 12.867 11.69 C 13.862 11.363 14.668 10.731 15.287 9.794 C 15.906 8.859 16.216 7.77 16.216 6.53 C 16.216 4.634 15.574 3.072 14.292 1.844 C 13.01 0.615 11.142 0 8.688 0 L 0 0 C 0 0 0.023 10.761 0.036 17.77 C 1.048 17.836 4.851 17.716 5.238 16.659 C 5.633 15.677 3.766 14.712 3.389 14.071 C 2.076 12.592 2.76 11.713 3.437 11.127 C 3.995 10.589 5.023 10.236 6.504 10.112 C 7.566 10.044 9.415 9.958 10.106 9.96 C 10.687 9.962 12.238 9.998 12.929 10.163 C 12.15 10.189 11.008 10.1 9.132 10.417 C 7.855 10.633 7.239 11.043 7.113 11.515 C 7.092 11.59 7.082 11.678 7.087 11.788 C 7.128 12.594 8.146 13.45 9.91 14.427 C 10.258 14.62 11.034 15.073 11.568 15.912 C 11.756 16.207 11.862 16.511 12.004 16.915 C 12.306 19.242 10.856 20.51 9.132 21.483 C 5.737 23.473 3.623 23.404 2.268 23.715 C 3.85 23.715 9.649 23.664 9.649 23.664 C 11.837 23.664 13.567 23.061 14.839 21.856 C 16.109 20.651 16.745 19.113 16.745 17.24 C 16.745 14.361 15.452 12.512 12.866 11.693 Z" fill="rgb(22,38,73)"/><path d="M 23.905 20.245 L 29.985 20.245 L 29.985 23.682 L 20.145 23.682 L 20.145 6.523 L 23.905 6.523 Z M 40.949 17.062 L 40.949 6.523 L 44.709 6.523 L 44.709 17.038 C 44.709 19.278 44.107 20.989 42.902 22.168 C 41.697 23.347 40.069 23.938 38.019 23.938 C 35.969 23.938 34.381 23.352 33.159 22.181 C 31.938 21.011 31.328 19.355 31.328 17.217 L 31.328 6.523 L 35.088 6.523 L 35.088 17.19 C 35.088 19.312 36.065 20.371 38.019 20.371 C 39.973 20.371 40.95 19.268 40.95 17.062 Z M 50.936 20.55 L 57.383 20.55 L 57.383 23.682 L 47.152 23.682 L 47.152 6.523 L 57.285 6.523 L 57.285 9.655 L 50.936 9.655 L 50.936 13.55 L 56.601 13.55 L 56.601 16.655 L 50.936 16.655 Z M 74.818 7.287 L 74.818 10.953 C 73.499 10.156 72.132 9.756 70.715 9.756 C 70.08 9.756 69.596 9.893 69.262 10.163 C 68.929 10.435 68.761 10.783 68.761 11.208 C 68.761 11.632 68.965 12.009 69.372 12.34 C 69.778 12.671 70.389 13.023 71.203 13.396 C 71.707 13.635 72.126 13.841 72.461 14.02 C 72.794 14.198 73.177 14.445 73.608 14.758 C 74.039 15.072 74.381 15.403 74.633 15.751 C 74.885 16.099 75.101 16.528 75.28 17.037 C 75.459 17.545 75.548 18.097 75.548 18.691 C 75.548 20.236 75.002 21.487 73.912 22.446 C 72.821 23.406 71.372 23.885 69.566 23.885 C 67.628 23.885 66.05 23.529 64.828 22.816 L 64.828 18.87 C 66.309 19.99 67.889 20.55 69.566 20.55 C 70.135 20.55 70.607 20.394 70.982 20.08 C 71.356 19.765 71.544 19.354 71.544 18.845 C 71.544 18.675 71.519 18.514 71.471 18.361 C 71.422 18.208 71.333 18.065 71.203 17.929 C 71.072 17.793 70.947 17.678 70.825 17.585 C 70.702 17.493 70.523 17.382 70.287 17.255 C 70.051 17.127 69.852 17.022 69.689 16.936 C 69.526 16.851 69.286 16.732 68.968 16.579 C 68.651 16.426 68.395 16.308 68.2 16.223 C 67.141 15.714 66.291 15.086 65.647 14.339 C 65.004 13.592 64.682 12.599 64.682 11.361 C 64.682 9.884 65.203 8.692 66.245 7.784 C 67.286 6.877 68.727 6.423 70.567 6.423 C 72.211 6.423 73.628 6.711 74.816 7.288 Z M 88.223 6.523 L 88.223 9.68 L 84.218 9.68 L 84.218 23.683 L 80.433 23.683 L 80.433 9.679 L 76.404 9.679 L 76.404 6.522 L 88.223 6.522 Z M 100.604 23.682 L 99.602 20.169 L 93.84 20.169 L 92.838 23.682 L 88.907 23.682 L 94.402 6.523 L 99.139 6.523 L 104.634 23.682 L 100.605 23.682 Z M 94.744 17.012 L 98.699 17.012 L 98.529 16.4 C 98.056 14.737 97.67 13.32 97.369 12.149 C 97.067 10.978 96.884 10.223 96.82 9.883 L 96.722 9.374 C 96.591 10.308 95.99 12.65 94.915 16.4 L 94.745 17.012 Z M 114.644 23.682 L 111.078 17.724 L 109.931 17.724 L 109.931 23.682 L 106.17 23.682 L 106.17 6.523 L 111.86 6.523 C 113.699 6.523 115.177 7.032 116.292 8.05 C 117.407 9.069 117.965 10.393 117.965 12.021 C 117.965 14.465 116.963 16.154 114.961 17.088 L 119.137 23.682 Z M 109.931 9.705 L 109.931 14.542 L 111.713 14.542 C 113.341 14.542 114.155 13.711 114.155 12.047 C 114.155 11.317 113.944 10.745 113.52 10.329 C 113.096 9.913 112.518 9.705 111.786 9.705 L 109.93 9.705 Z M 129.832 20.55 L 136.279 20.55 L 136.279 23.682 L 126.048 23.682 L 126.048 6.523 L 136.181 6.523 L 136.181 9.655 L 129.832 9.655 L 129.832 13.55 L 135.497 13.55 L 135.497 16.655 L 129.832 16.655 Z M 142.481 20.245 L 148.561 20.245 L 148.561 23.682 L 138.721 23.682 L 138.721 6.523 L 142.481 6.523 Z M 150.026 6.523 L 155.691 6.523 C 158.165 6.523 160.192 7.317 161.771 8.903 C 163.35 10.491 164.14 12.464 164.14 14.822 C 164.14 17.571 163.362 19.735 161.808 21.314 C 160.253 22.892 158.197 23.682 155.642 23.682 L 150.025 23.682 L 150.025 6.523 Z M 153.884 20.474 L 155.594 20.474 C 157.108 20.474 158.275 19.982 159.098 18.997 C 159.919 18.014 160.331 16.622 160.331 14.822 C 160.331 13.295 159.916 12.068 159.086 11.143 C 158.256 10.218 157.084 9.755 155.57 9.755 L 153.885 9.755 L 153.885 20.473 Z" fill="rgb(22,38,73)"/><path d="M 166.945 4.33 L 166.945 5.079 L 165.994 5.079 L 165.994 8.403 L 165.095 8.403 L 165.095 5.079 L 164.139 5.079 L 164.139 4.33 L 166.944 4.33 Z M 167.265 8.403 L 167.601 4.329 L 168.581 4.329 L 169.126 5.803 C 169.219 6.049 169.298 6.275 169.364 6.48 C 169.43 6.685 169.473 6.831 169.492 6.915 L 169.521 7.035 C 169.583 6.769 169.718 6.359 169.926 5.802 L 170.477 4.328 L 171.457 4.328 L 171.863 8.401 L 170.97 8.401 L 170.825 6.824 L 170.75 5.633 C 170.649 5.935 170.509 6.332 170.333 6.824 L 169.782 8.359 L 169.255 8.359 L 168.71 6.824 C 168.621 6.575 168.546 6.351 168.484 6.153 C 168.422 5.955 168.381 5.819 168.362 5.742 L 168.333 5.633 C 168.333 5.92 168.316 6.316 168.28 6.824 L 168.159 8.401 L 167.266 8.401 Z" fill="rgb(22,38,73)"/></svg>